HIERARCHY
ROOT Hips
{
	OFFSET -3.958830 18.904000 13.208200
	CHANNELS 6 Xposition Yposition Zposition Zrotation Yrotation Xrotation 
	JOINT LHipJoint
	{
		OFFSET 0.000000 0.000000 0.000000
		CHANNELS 3 Zrotation Yrotation Xrotation
		JOINT LeftUpLeg
		{
			OFFSET 1.800000 -1.400000 0.085000
			CHANNELS 3 Zrotation Yrotation Xrotation
			JOINT LeftLeg
			{
				OFFSET 2.215000 -6.000000 0.000000
				CHANNELS 3 Zrotation Yrotation Xrotation
				JOINT LeftFoot
				{
					OFFSET 2.500000 -6.900000 0.000000
					CHANNELS 3 Zrotation Yrotation Xrotation
					JOINT LeftToeBase
					{
						OFFSET 0.200000 -0.500000 1.950000
						CHANNELS 3 Zrotation Yrotation Xrotation
						End Site
						{
							OFFSET 0.000000 0.000000 0.000000
						}
					}
				}
			}
		}
	}
	JOINT RHipJoint
	{
		OFFSET 0.000000 0.000000 0.000000
		CHANNELS 3 Zrotation Yrotation Xrotation
		JOINT RightUpLeg
		{
			OFFSET -1.800000 -1.400000 0.085000
			CHANNELS 3 Zrotation Yrotation Xrotation
			JOINT RightLeg
			{
				OFFSET -2.215000 -6.000000 0.000000
				CHANNELS 3 Zrotation Yrotation Xrotation
				JOINT RightFoot
				{
					OFFSET -2.500000 -6.900000 0.000000
					CHANNELS 3 Zrotation Yrotation Xrotation
					JOINT RightToeBase
					{
						OFFSET -0.200000 -0.500000 1.950000
						CHANNELS 3 Zrotation Yrotation Xrotation
						End Site
						{
							OFFSET 0.000000 0.000000 0.000000
						}
					}
				}
			}
		}
	}
	JOINT LowerBack
	{
		OFFSET 0.000000 0.000000 0.000000
		CHANNELS 3 Zrotation Yrotation Xrotation
		JOINT Spine
		{
			OFFSET -0.087000 1.940000 -0.288900
			CHANNELS 3 Zrotation Yrotation Xrotation
			JOINT Spine1
			{
				OFFSET 0.000000 1.950000 0.060000
				CHANNELS 3 Zrotation Yrotation Xrotation
				JOINT Neck
				{
					OFFSET 0.000000 0.000000 0.000000
					CHANNELS 3 Zrotation Yrotation Xrotation
					JOINT Neck1
					{
						OFFSET 0.000000 1.600000 0.340000
						CHANNELS 3 Zrotation Yrotation Xrotation
						JOINT Head
						{
							OFFSET 0.000000 1.667000 -0.240000
							CHANNELS 3 Zrotation Yrotation Xrotation
							End Site
							{
								OFFSET 0.000000 0.000000 0.000000
							}
						}
					}
				}
				JOINT LeftShoulder
				{
					OFFSET 0.000000 0.000000 0.000000
					CHANNELS 3 Zrotation Yrotation Xrotation
					JOINT LeftArm
					{
						OFFSET 2.700000 1.550000 -0.730000
						CHANNELS 3 Zrotation Yrotation Xrotation
						JOINT LeftForeArm
						{
							OFFSET 5.450000 0.000000 0.000000
							CHANNELS 3 Zrotation Yrotation Xrotation
							JOINT LeftHand
							{
								OFFSET 3.450000 0.000000 0.000000
								CHANNELS 3 Zrotation Yrotation Xrotation
								JOINT LeftHandIndex1
								{
									OFFSET 0.750000 0.000000 0.000000
									CHANNELS 3 Zrotation Yrotation Xrotation
									End Site
									{
										OFFSET 0.000000 0.000000 0.000000
									}
								}
							}
						}
					}
				}
				JOINT RightShoulder
				{
					OFFSET 0.000000 0.000000 0.000000
					CHANNELS 3 Zrotation Yrotation Xrotation
					JOINT RightArm
					{
						OFFSET -2.700000 1.550000 -0.730000
						CHANNELS 3 Zrotation Yrotation Xrotation
						JOINT RightForeArm
						{
							OFFSET -5.450000 0.000000 0.000000
							CHANNELS 3 Zrotation Yrotation Xrotation
							JOINT RightHand
							{
								OFFSET -3.450000 0.000000 0.000000
								CHANNELS 3 Zrotation Yrotation Xrotation
								JOINT RightHandIndex1
								{
									OFFSET -0.750000 0.000000 0.000000
									CHANNELS 3 Zrotation Yrotation Xrotation
									End Site
									{
										OFFSET 0.000000 0.000000 0.000000
									}
								}
							}
						}
					}
				}
			}
		}
	}
}
MOTION
Frames: 13
Frame Time: 0.016667
-2.016800 16.525590 -2.094740 -3.465638 1.311117 -14.152664 -15.429085 13.305701 3.619807 -2.903127 0.764796 25.913535 -3.969648 10.935986 35.498805 0.860538 9.819141 1.630236 -0.106810 -0.371610 -0.247580 18.267886 -8.635295 4.249504 9.362709 8.612978 -43.222596 1.359303 -5.996613 37.982645 -0.589514 -4.451806 2.725101 -0.222760 0.774270 0.564630 -3.221277 -4.498925 -8.545896 7.556874 -11.645928 44.683127 -5.509148 -9.595817 4.907582 1.881055 -4.034948 -9.271952 -11.270549 3.345592 35.968255 -5.466550 2.112500 -20.087530 -9.936154 -5.705758 3.977450 -10.832957 -5.930983 -3.887344 126.749505 -49.004244 -94.198878 -4.161149 2.265322 0.880750 0.257200 0.185410 0.321410 6.693535 4.766941 3.789536 39.355484 -1.686171 -17.453418 -92.145039 32.966272 -34.457944 1.818364 -1.346853 -0.403090 0.539510 0.376740 0.047580 
-2.009100 16.316850 -2.079210 -3.755588 -0.348804 -16.240560 -15.503876 13.167018 3.670040 -3.183899 1.013911 28.161952 -5.576600 12.174301 36.728995 1.038698 10.288717 1.495819 -0.072270 -0.321750 -0.237260 18.254294 -8.285044 4.468252 9.382136 10.207484 -44.186755 2.213854 -6.973647 43.402365 -0.816277 -5.483683 2.381284 -0.208090 0.761550 0.585920 -3.082058 -4.730165 -8.691294 7.110416 -11.038223 48.564069 -5.044967 -9.118865 4.444217 2.174259 -3.924669 -8.893665 -10.621344 3.118854 34.812003 -5.333240 2.096730 -21.134400 -11.314890 -6.615555 2.861565 -5.250083 -4.642715 -5.565076 122.283673 -46.073682 -82.710828 -4.110093 2.257408 0.865400 0.251200 0.208020 0.346900 7.451360 5.889719 4.416745 34.211156 -3.808055 -17.771891 -95.042677 32.173684 -36.335107 1.841982 -1.417049 -0.370800 0.517660 0.340880 0.067500 
-2.012520 16.162360 -2.052750 -3.767425 -0.517975 -17.754330 -15.541600 13.084756 3.703655 -3.501596 0.953020 29.521760 -6.254524 13.005654 38.604964 1.166873 10.666607 1.372689 -0.062910 -0.315180 -0.239030 18.252254 -8.097088 4.566213 9.166067 10.955753 -44.897318 2.302457 -7.571019 47.166129 -0.969515 -6.192207 2.139215 -0.216530 0.733070 0.583460 -3.025945 -4.875739 -8.765471 6.770760 -10.982575 51.168573 -4.731408 -9.287937 4.257308 2.195820 -4.314627 -8.966626 -11.178316 2.942848 33.944793 -3.971110 1.374300 -22.271480 -11.081893 -6.639847 2.604058 -4.531796 -3.442549 -6.723990 120.006364 -43.920154 -77.032144 -4.061662 2.303726 0.869760 0.218270 0.212480 0.338110 7.180610 6.263168 4.800551 32.710317 -5.541169 -18.316568 -98.654658 32.748948 -40.016783 1.854273 -1.436059 -0.350700 0.489320 0.336160 0.070420 
-1.996660 16.068700 -2.016520 -3.835363 -1.058764 -18.268298 -15.543069 12.978996 3.722125 -4.306457 1.353920 30.016339 -5.981573 13.101281 39.400150 1.276444 10.717031 1.368989 -0.101800 -0.348140 -0.293330 18.281107 -7.953278 4.686512 8.893975 11.714829 -45.777500 2.724683 -8.200843 49.831909 -1.065131 -6.723753 1.991767 -0.261080 0.733190 0.551830 -3.065018 -4.895345 -8.835590 7.442731 -11.435882 51.364314 -4.886545 -9.622590 5.014645 2.396387 -5.194097 -10.218211 -13.104037 3.608362 34.549293 -2.387700 0.819420 -20.254470 -9.856908 -7.101129 3.894871 -8.896391 -1.183763 -7.804548 120.535735 -42.050991 -77.157330 -4.019902 2.370549 0.842960 0.198110 0.194890 0.342500 5.574177 7.511639 5.663668 33.890881 -6.455016 -19.091379 -101.847223 34.187475 -45.097976 1.873099 -1.418883 -0.332930 0.466510 0.334360 0.098510 
-1.975500 16.056280 -1.963550 -4.438398 -1.535103 -17.293594 -15.489064 12.884870 3.665767 -4.749653 1.631179 29.297646 -5.015300 12.582490 39.425502 1.310439 10.512933 1.441160 -0.112880 -0.339930 -0.354650 18.349916 -7.917455 4.795599 9.105957 12.311692 -46.388753 3.351576 -8.484091 49.664007 -1.062291 -6.728742 2.016209 -0.281780 0.751880 0.532540 -3.240985 -4.728696 -8.822330 9.653141 -12.709271 48.790415 -5.564078 -10.258104 6.145249 2.503791 -6.690352 -11.359169 -16.475156 5.416212 35.425333 -0.709710 0.424710 -17.688110 -9.125542 -6.630002 5.392862 -15.647789 0.387235 -8.023494 122.703188 -42.631386 -82.997491 -3.994795 2.421414 0.807610 0.188890 0.182730 0.373650 4.751846 8.025898 6.013523 34.966625 -5.541792 -18.783388 -105.324947 36.424915 -51.540643 1.880546 -1.377928 -0.303740 0.454680 0.321340 0.145270 
-1.984530 16.124610 -1.912920 -4.696215 -2.508955 -15.932367 -15.439127 12.844060 3.613762 -5.086025 2.173207 28.315839 -3.966894 11.862051 38.444715 1.311473 10.159942 1.550881 -0.118750 -0.327590 -0.405300 18.403718 -7.934675 4.845289 9.721808 12.736184 -45.827174 3.817844 -8.283762 47.699656 -0.982572 -6.353990 2.160892 -0.298480 0.760230 0.515400 -3.389317 -4.574207 -8.764916 11.179596 -13.269200 45.622373 -6.111267 -10.450020 7.367057 2.573145 -8.083794 -12.563273 -19.993347 7.245442 35.899175 0.886230 -0.082340 -15.309530 -8.703814 -6.110512 6.806055 -23.198818 0.772903 -7.909767 125.426796 -44.723763 -91.916566 -3.978895 2.484041 0.764620 0.176760 0.173700 0.399060 4.373249 8.520591 6.548922 36.456571 -4.745884 -18.122929 -109.050357 40.895743 -61.745360 1.893307 -1.256184 -0.267220 0.438980 0.307630 0.189340 
-2.011470 16.258430 -1.868230 -4.820931 -2.913965 -14.384936 -15.398698 12.913475 3.554102 -4.659499 2.470474 27.338786 -3.160064 11.111678 36.471215 1.311637 9.663448 1.694526 -0.080490 -0.242480 -0.424540 18.424619 -8.035099 4.805385 10.478958 12.561129 -44.556076 3.613796 -7.499646 44.215699 -0.853564 -5.631009 2.409072 -0.290740 0.735300 0.502340 -3.475255 -4.498062 -8.677836 11.857099 -13.174070 42.108304 -5.953687 -10.377556 8.683161 2.322877 -8.547468 -13.774330 -22.026876 9.013683 37.354813 3.168660 -0.244490 -12.904740 -8.157313 -6.249869 8.137563 -29.122421 0.883123 -7.815082 127.192650 -47.573772 -99.839307 -3.921495 2.582253 0.713030 0.148550 0.200590 0.437950 4.484075 9.031574 7.247752 38.142867 -4.680459 -17.351924 -111.762495 46.491196 -72.966687 1.958269 -1.097105 -0.198400 0.401290 0.248010 0.244990 
-2.038280 16.445910 -1.820650 -4.930876 -2.727469 -12.236637 -15.363046 13.087777 3.483864 -3.704534 2.545149 26.035660 -2.570639 10.332425 33.624261 1.173415 9.224844 1.841105 -0.139450 -0.332470 -0.474950 18.421290 -8.198824 4.667229 10.688053 11.704440 -43.146505 4.043177 -6.908159 39.012120 -0.639880 -4.705400 2.731201 -0.333620 0.795630 0.499950 -3.521020 -4.532533 -8.541066 12.749297 -13.231609 38.034083 -6.061495 -10.357805 9.485215 2.436934 -8.828685 -14.797262 -23.555714 10.154375 38.055023 4.147000 -0.708660 -10.073840 -7.767213 -5.773843 8.891412 -35.370726 0.319367 -7.060274 128.946606 -53.242960 -110.626268 -3.971933 2.610663 0.716250 0.175500 0.161160 0.429810 3.981426 8.704605 8.148131 40.381444 -5.477111 -15.925809 -116.264737 54.477512 -90.020070 2.044497 -0.847747 -0.225980 0.424000 0.301510 0.246720 
-2.072010 16.652350 -1.777180 -5.068590 -2.108914 -9.807822 -15.340936 13.316135 3.372962 -2.495526 2.389384 23.996714 -1.918758 9.512295 30.880621 1.035033 8.715979 1.987871 -0.162790 -0.369200 -0.513330 18.403278 -8.361915 4.506183 10.645621 10.699071 -41.695490 4.848984 -6.324115 33.040624 -0.436201 -3.745985 3.058115 -0.358710 0.822080 0.526320 -3.530041 -4.650198 -8.377008 13.295333 -13.364962 33.586441 -5.776192 -10.679292 10.166583 2.469560 -9.153127 -15.476034 -24.933003 11.171950 38.457058 4.395630 -1.098340 -7.822820 -6.441677 -4.410840 9.469814 -42.720089 0.339222 -6.647441 130.364392 -61.618567 -122.853504 -3.985405 2.780394 0.696220 0.196820 0.142490 0.425200 2.686669 7.629001 8.468030 42.593730 -4.399404 -13.597007 -120.757804 63.305113 -108.534474 2.216343 -0.846831 -0.207790 0.401960 0.335470 0.260710 
-2.107630 16.888530 -1.714040 -4.670246 -2.886838 -6.787238 -15.294416 13.400844 3.271041 -1.937574 2.625143 21.294084 -2.241667 9.093339 28.005777 0.925357 8.189185 2.162063 -0.227930 -0.425270 -0.574930 18.423167 -8.528320 4.446376 11.110591 10.230686 -40.341164 4.814131 -5.320356 27.003696 -0.222665 -2.813883 3.413680 -0.392160 0.881720 0.510280 -3.619920 -4.474573 -8.293316 13.683308 -12.494281 28.743016 -6.081723 -9.949462 9.413602 2.358060 -8.751168 -15.757280 -24.243151 12.010080 39.764359 5.186650 -0.812620 -3.633680 -6.132763 -3.805806 9.684717 -47.239842 1.436834 -7.238972 136.758421 -72.362410 -140.790717 -3.924748 3.079575 0.644020 0.243720 0.097930 0.420640 2.500872 7.060261 8.681475 45.723483 -5.557158 -15.492663 -139.426790 77.173968 -145.034455 2.008235 -1.771480 -0.215290 0.406120 0.366550 0.283090 
-2.133670 17.129640 -1.665060 -4.238209 -4.077256 -4.458401 -15.305288 13.576522 3.217859 -1.506919 2.787508 18.660076 -2.862015 8.939374 26.283375 0.840215 7.803141 2.256213 -0.201070 -0.410840 -0.542950 18.382312 -8.635994 4.357769 11.442941 9.604566 -38.353858 4.680184 -4.452641 21.230094 -0.111310 -2.075885 3.657449 -0.401050 0.834050 0.549740 -3.535429 -4.587425 -8.280710 13.168572 -11.444371 25.568932 -6.511829 -9.135593 8.460597 3.221276 -8.417013 -15.594462 -23.927120 12.261771 40.859132 4.191560 -0.239220 -2.446800 -4.623238 -2.229592 9.188561 -52.673549 1.377494 -11.168855 -167.587428 -85.368549 153.836229 -3.582851 3.107154 0.645260 0.232440 0.128270 0.415730 -0.741521 5.718989 8.304941 50.902010 -3.652132 -12.154015 90.070555 88.195252 69.319713 4.393832 4.376084 -0.174060 0.337950 0.346820 0.277540 
-2.151460 17.373890 -1.620010 -3.136148 -5.004409 -2.064655 -15.327083 13.708736 3.207101 -2.437884 3.000013 15.435766 -2.613042 8.413227 25.362568 0.722023 7.382002 2.389287 -0.222870 -0.448570 -0.542700 18.327430 -8.796498 4.231202 10.904159 8.674374 -36.914269 4.899045 -3.853570 16.083479 -0.015537 -1.583485 3.854317 -0.418810 0.845980 0.537250 -3.411860 -4.594338 -8.239685 11.978296 -9.940485 21.781312 -5.606402 -7.849927 7.650166 3.238029 -8.049733 -16.079814 -23.528187 12.970067 43.144245 4.004020 0.339480 0.099650 -5.936843 -2.336373 8.852482 -56.945378 1.543840 -9.439884 -50.612770 -84.046895 32.195868 -3.725820 3.374783 0.652480 0.244830 0.118040 0.412380 0.525249 6.349828 9.448440 52.011347 -5.184649 -12.239624 71.197250 80.520495 44.403284 2.561092 -1.123177 -0.194140 0.342260 0.352570 0.266150 
-2.177770 17.617400 -1.582560 -1.551345 -6.640252 0.165286 -15.337782 13.759112 3.209459 -3.845367 3.118404 11.625966 -3.287027 8.437844 25.874586 0.684964 7.112829 2.472088 -0.242210 -0.467580 -0.537720 18.279625 -8.986214 4.139347 9.755042 7.841931 -35.778898 5.847383 -3.461033 11.724705 0.048818 -1.325895 3.968502 -0.433480 0.850080 0.507170 -3.304083 -4.428099 -8.260354 9.894565 -8.260395 18.552789 -4.919110 -6.587157 5.354157 3.258514 -7.696972 -15.717088 -22.734711 13.735765 45.154405 4.446900 0.989280 3.066790 -7.900268 -1.709576 8.302228 -60.080525 3.145140 -11.843722 -38.054729 -73.250613 18.112697 -3.620509 3.358598 0.621030 0.253450 0.099850 0.407740 2.518625 6.174485 9.161964 53.711352 -5.716045 -14.294942 58.429447 69.342954 30.554777 2.150880 -1.672455 -0.197840 0.334800 0.338340 0.267080 
